<svg xmlns="http://www.w3.org/2000/svg" viewBox="0 0 122.54 19.28">
  <defs>
    <style>
      .cls-1 {
        fill: #3e83f4;
      }
    </style>
  </defs>
  <path id="ComingSoon" class="cls-1" d="M8.4.32A7.541,7.541,0,0,1,4.6-.66a7.1,7.1,0,0,1-2.7-2.7,7.541,7.541,0,0,1-.98-3.8,7.541,7.541,0,0,1,.98-3.8,7.1,7.1,0,0,1,2.7-2.7,7.541,7.541,0,0,1,3.8-.98,7.093,7.093,0,0,1,2.95.6A6.989,6.989,0,0,1,13.7-12.3l-1.6,1.54a4.929,4.929,0,0,0-1.64-1.31A4.723,4.723,0,0,0,8.4-12.5a5.331,5.331,0,0,0-2.63.66A4.9,4.9,0,0,0,3.88-9.97a5.511,5.511,0,0,0-.7,2.81,5.511,5.511,0,0,0,.7,2.81A4.9,4.9,0,0,0,5.77-2.48a5.331,5.331,0,0,0,2.63.66,5.147,5.147,0,0,0,4.08-2L14.1-2.26a7.292,7.292,0,0,1-2.5,1.9A7.485,7.485,0,0,1,8.4.32Zm12.22,0a5.385,5.385,0,0,1-2.76-.71,4.993,4.993,0,0,1-1.9-1.95,5.644,5.644,0,0,1-.68-2.76,5.644,5.644,0,0,1,.68-2.76,4.993,4.993,0,0,1,1.9-1.95,5.385,5.385,0,0,1,2.76-.71,5.327,5.327,0,0,1,2.76.72,5.064,5.064,0,0,1,1.9,1.96,5.6,5.6,0,0,1,.68,2.74,5.644,5.644,0,0,1-.68,2.76,4.993,4.993,0,0,1-1.9,1.95A5.385,5.385,0,0,1,20.62.32Zm0-2.02a3.1,3.1,0,0,0,1.56-.41,3.014,3.014,0,0,0,1.15-1.18,3.653,3.653,0,0,0,.43-1.81,3.6,3.6,0,0,0-.43-1.8,3.032,3.032,0,0,0-1.15-1.17,3.1,3.1,0,0,0-1.56-.41,3.1,3.1,0,0,0-1.56.41A3.032,3.032,0,0,0,17.91-6.9a3.6,3.6,0,0,0-.43,1.8,3.653,3.653,0,0,0,.43,1.81,3.014,3.014,0,0,0,1.15,1.18A3.1,3.1,0,0,0,20.62-1.7Zm7.16-8.5h2.1v1.34h.1a3.432,3.432,0,0,1,1.3-1.2,3.69,3.69,0,0,1,1.8-.46,3.56,3.56,0,0,1,1.92.51,2.922,2.922,0,0,1,1.18,1.35,3.966,3.966,0,0,1,1.39-1.35,3.981,3.981,0,0,1,2.05-.51,3.31,3.31,0,0,1,2.67,1.07,4.346,4.346,0,0,1,.91,2.91V0H41V-6.16q0-2.32-1.98-2.32a2.122,2.122,0,0,0-1.74.86A3.312,3.312,0,0,0,36.6-5.5V0H34.4V-6.16q0-2.32-2.04-2.32a2.077,2.077,0,0,0-1.71.86,3.345,3.345,0,0,0-.67,2.12V0h-2.2Zm19.18-1.48a1.428,1.428,0,0,1-1.05-.43,1.428,1.428,0,0,1-.43-1.05,1.428,1.428,0,0,1,.43-1.05,1.428,1.428,0,0,1,1.05-.43,1.428,1.428,0,0,1,1.05.43,1.428,1.428,0,0,1,.43,1.05,1.428,1.428,0,0,1-.43,1.05A1.428,1.428,0,0,1,46.96-11.68Zm-1.1,1.48h2.2V0h-2.2Zm4.94,0h2.1v1.34H53a3.356,3.356,0,0,1,1.31-1.19,3.835,3.835,0,0,1,1.85-.47,3.59,3.59,0,0,1,2.83,1.09,4.307,4.307,0,0,1,.97,2.97V0h-2.2V-6.16a2.327,2.327,0,0,0-.59-1.76,2.272,2.272,0,0,0-1.63-.56,2.231,2.231,0,0,0-1.32.41,2.729,2.729,0,0,0-.9,1.09A3.386,3.386,0,0,0,53-5.52V0H50.8ZM66.94,4.64a5.3,5.3,0,0,1-3.11-.86,4.236,4.236,0,0,1-1.65-2.04L64.24.88a2.8,2.8,0,0,0,1.03,1.29,2.867,2.867,0,0,0,1.67.49,2.879,2.879,0,0,0,2.19-.83A3.245,3.245,0,0,0,69.92-.5v-.94H69.8A3.44,3.44,0,0,1,68.47-.31,4.259,4.259,0,0,1,66.56.1a4.544,4.544,0,0,1-2.38-.66,4.743,4.743,0,0,1-1.75-1.87,5.762,5.762,0,0,1-.65-2.77,5.762,5.762,0,0,1,.65-2.77,4.816,4.816,0,0,1,1.75-1.88,4.493,4.493,0,0,1,2.38-.67,4.191,4.191,0,0,1,1.9.42A3.5,3.5,0,0,1,69.8-8.96h.12V-10.2h2.1V-.56a5.821,5.821,0,0,1-.64,2.83,4.243,4.243,0,0,1-1.79,1.77A5.647,5.647,0,0,1,66.94,4.64Zm.02-6.54a2.924,2.924,0,0,0,1.48-.39,2.79,2.79,0,0,0,1.08-1.14,3.709,3.709,0,0,0,.4-1.77,3.33,3.33,0,0,0-.85-2.43,2.831,2.831,0,0,0-2.11-.87,2.962,2.962,0,0,0-1.5.39,2.8,2.8,0,0,0-1.08,1.13,3.7,3.7,0,0,0-.4,1.78,3.7,3.7,0,0,0,.4,1.78,2.8,2.8,0,0,0,1.08,1.13A2.962,2.962,0,0,0,66.96-1.9ZM83.18.32a5.282,5.282,0,0,1-3.2-1.04,5.3,5.3,0,0,1-1.96-2.92l2.12-.86a3.984,3.984,0,0,0,1.13,1.93,2.769,2.769,0,0,0,1.95.75,2.933,2.933,0,0,0,1.8-.55,1.779,1.779,0,0,0,.74-1.51,1.844,1.844,0,0,0-.65-1.45,7.376,7.376,0,0,0-2.27-1.15l-.9-.32a6.535,6.535,0,0,1-2.42-1.44,3.279,3.279,0,0,1-.98-2.48,3.548,3.548,0,0,1,.58-1.96,4.1,4.1,0,0,1,1.61-1.43,5.018,5.018,0,0,1,2.33-.53,4.616,4.616,0,0,1,3,.91,4.483,4.483,0,0,1,1.5,2.05l-2.02.86a2.607,2.607,0,0,0-.84-1.2,2.4,2.4,0,0,0-1.6-.52,2.681,2.681,0,0,0-1.65.5,1.532,1.532,0,0,0-.67,1.28,1.5,1.5,0,0,0,.6,1.22,6.454,6.454,0,0,0,1.88.92l.9.3a7.267,7.267,0,0,1,2.85,1.67A3.758,3.758,0,0,1,88.02-3.9a3.778,3.778,0,0,1-.72,2.35A4.34,4.34,0,0,1,85.47-.14,5.927,5.927,0,0,1,83.18.32ZM95,.32a5.385,5.385,0,0,1-2.76-.71,4.993,4.993,0,0,1-1.9-1.95,5.644,5.644,0,0,1-.68-2.76,5.644,5.644,0,0,1,.68-2.76,4.993,4.993,0,0,1,1.9-1.95A5.385,5.385,0,0,1,95-10.52a5.327,5.327,0,0,1,2.76.72,5.064,5.064,0,0,1,1.9,1.96,5.6,5.6,0,0,1,.68,2.74,5.644,5.644,0,0,1-.68,2.76,4.993,4.993,0,0,1-1.9,1.95A5.385,5.385,0,0,1,95,.32ZM95-1.7a3.1,3.1,0,0,0,1.56-.41,3.014,3.014,0,0,0,1.15-1.18,3.653,3.653,0,0,0,.43-1.81,3.6,3.6,0,0,0-.43-1.8,3.032,3.032,0,0,0-1.15-1.17A3.1,3.1,0,0,0,95-8.48a3.1,3.1,0,0,0-1.56.41A3.032,3.032,0,0,0,92.29-6.9a3.6,3.6,0,0,0-.43,1.8,3.653,3.653,0,0,0,.43,1.81,3.014,3.014,0,0,0,1.15,1.18A3.1,3.1,0,0,0,95-1.7ZM107.14.32a5.385,5.385,0,0,1-2.76-.71,4.993,4.993,0,0,1-1.9-1.95,5.644,5.644,0,0,1-.68-2.76,5.644,5.644,0,0,1,.68-2.76,4.993,4.993,0,0,1,1.9-1.95,5.385,5.385,0,0,1,2.76-.71,5.327,5.327,0,0,1,2.76.72,5.064,5.064,0,0,1,1.9,1.96,5.6,5.6,0,0,1,.68,2.74,5.644,5.644,0,0,1-.68,2.76,4.993,4.993,0,0,1-1.9,1.95A5.385,5.385,0,0,1,107.14.32Zm0-2.02a3.1,3.1,0,0,0,1.56-.41,3.014,3.014,0,0,0,1.15-1.18,3.653,3.653,0,0,0,.43-1.81,3.6,3.6,0,0,0-.43-1.8,3.032,3.032,0,0,0-1.15-1.17,3.1,3.1,0,0,0-1.56-.41,3.1,3.1,0,0,0-1.56.41,3.032,3.032,0,0,0-1.15,1.17A3.6,3.6,0,0,0,104-5.1a3.653,3.653,0,0,0,.43,1.81,3.014,3.014,0,0,0,1.15,1.18A3.1,3.1,0,0,0,107.14-1.7Zm7.16-8.5h2.1v1.34h.1a3.356,3.356,0,0,1,1.31-1.19,3.835,3.835,0,0,1,1.85-.47,3.59,3.59,0,0,1,2.83,1.09,4.307,4.307,0,0,1,.97,2.97V0h-2.2V-6.16a2.327,2.327,0,0,0-.59-1.76,2.272,2.272,0,0,0-1.63-.56,2.231,2.231,0,0,0-1.32.41,2.729,2.729,0,0,0-.9,1.09,3.386,3.386,0,0,0-.32,1.46V0h-2.2Z" transform="translate(-0.92 14.64)"/>
</svg>
