<svg xmlns="http://www.w3.org/2000/svg" viewBox="0 0 206.7 57.096">
  <defs>
    <style>
      .cls-1 {
        fill: #3e83f4;
      }
    </style>
  </defs>
  <path id="Notes" class="cls-1" d="M6.4-55.848H16.77L41.73-15.21H42.2L41.73-25.974V-55.848h8.658V0H41.262L15.054-42.744h-.468l.468,10.764V0H6.4Zm74.022,57.1A21,21,0,0,1,69.654-1.521a19.472,19.472,0,0,1-7.41-7.605A22.012,22.012,0,0,1,59.592-19.89a22.012,22.012,0,0,1,2.652-10.764,19.472,19.472,0,0,1,7.41-7.605,21,21,0,0,1,10.764-2.769A20.776,20.776,0,0,1,91.182-38.22a19.748,19.748,0,0,1,7.41,7.644,21.855,21.855,0,0,1,2.652,10.686A22.012,22.012,0,0,1,98.592-9.126a19.472,19.472,0,0,1-7.41,7.605A21,21,0,0,1,80.418,1.248Zm0-7.878a12.088,12.088,0,0,0,6.084-1.6,11.756,11.756,0,0,0,4.485-4.6,14.246,14.246,0,0,0,1.677-7.059,14.026,14.026,0,0,0-1.677-7.02A11.825,11.825,0,0,0,86.5-31.473a12.088,12.088,0,0,0-6.084-1.6,12.088,12.088,0,0,0-6.084,1.6,11.825,11.825,0,0,0-4.485,4.563,14.025,14.025,0,0,0-1.677,7.02,14.246,14.246,0,0,0,1.677,7.059,11.756,11.756,0,0,0,4.485,4.6A12.088,12.088,0,0,0,80.418-6.63ZM124.254.624a14.387,14.387,0,0,1-4.992-.858A10.96,10.96,0,0,1,115.44-2.5q-3.354-3.354-3.354-9.126V-32.214h-6.942V-39.78h6.942V-51.012h8.58V-39.78h9.672v7.566h-9.672v18.72q0,3.2,1.248,4.524,1.17,1.56,4.056,1.56a7.145,7.145,0,0,0,2.34-.351,9.775,9.775,0,0,0,2.184-1.131V-.546A15.017,15.017,0,0,1,124.254.624Zm30.888.624a20.3,20.3,0,0,1-10.491-2.73A19.237,19.237,0,0,1,137.4-9.009a22.211,22.211,0,0,1-2.613-10.8,22.568,22.568,0,0,1,2.535-10.569,19.936,19.936,0,0,1,7.059-7.761,18.731,18.731,0,0,1,10.3-2.886,19.812,19.812,0,0,1,10.413,2.652,17.364,17.364,0,0,1,6.708,7.254,22.877,22.877,0,0,1,2.3,10.374,19.938,19.938,0,0,1-.234,2.73h-30.5A12.115,12.115,0,0,0,147.3-9.477a11.961,11.961,0,0,0,8.073,3,11.773,11.773,0,0,0,6.357-1.677,12.591,12.591,0,0,0,4.329-4.563l7.254,3.432a21.372,21.372,0,0,1-7.332,7.722A20.152,20.152,0,0,1,155.142,1.248ZM165.36-24.57a9.913,9.913,0,0,0-1.326-4.173,9.49,9.49,0,0,0-3.549-3.471,11.251,11.251,0,0,0-5.811-1.4,10.313,10.313,0,0,0-6.981,2.457,12.736,12.736,0,0,0-3.939,6.591ZM196.794,1.248q-6.864,0-11.232-3A16.243,16.243,0,0,1,179.4-9.438l7.644-3.354a10.719,10.719,0,0,0,3.939,4.758A10.47,10.47,0,0,0,196.794-6.4a11.608,11.608,0,0,0,5.382-1.131,3.629,3.629,0,0,0,2.184-3.393,3.915,3.915,0,0,0-1.872-3.432,18.6,18.6,0,0,0-5.772-2.184l-4.758-1.17a17.118,17.118,0,0,1-7.878-4.134,9.888,9.888,0,0,1-3.12-7.488,9.738,9.738,0,0,1,2.067-6.162,13.306,13.306,0,0,1,5.577-4.1,19.91,19.91,0,0,1,7.644-1.443A20.585,20.585,0,0,1,206-38.805a13.168,13.168,0,0,1,6.084,6.435l-7.488,3.276q-2.262-4.6-8.268-4.6a9.253,9.253,0,0,0-4.836,1.17,3.472,3.472,0,0,0-1.95,3.042,3.517,3.517,0,0,0,1.482,2.925,12.78,12.78,0,0,0,4.368,1.911l5.85,1.482q5.85,1.482,8.853,4.485a10.021,10.021,0,0,1,3,7.371,10.654,10.654,0,0,1-2.145,6.591,13.837,13.837,0,0,1-5.889,4.407A21.293,21.293,0,0,1,196.794,1.248Z" transform="translate(-6.396 55.848)"/>
</svg>
