<svg width="1230" height="1170" viewBox="0 0 1230 1170" fill="none" xmlns="http://www.w3.org/2000/svg">
<path d="M1133.54 416.772C1145.29 404.99 1164.33 404.99 1176.08 416.772L1207.98 448.773C1237.34 478.23 1237.34 525.988 1207.98 555.444L931.508 832.787C902.145 862.243 854.537 862.243 825.174 832.787C795.81 803.331 795.81 755.573 825.174 726.116L1133.54 416.772Z" fill="#F9F9FC"/>
<path d="M995.308 22.0922C965.945 -7.36405 918.337 -7.36405 888.974 22.0922L729.473 182.098C700.109 211.554 700.109 259.312 729.473 288.768L878.341 438.107C907.704 467.563 955.312 467.563 984.675 438.107L1144.18 278.101C1173.54 248.645 1173.54 200.887 1144.18 171.431L995.308 22.0922Z" fill="#F9F9FC"/>
<path fill-rule="evenodd" clip-rule="evenodd" d="M559.338 352.77C588.701 323.314 636.309 323.314 665.672 352.77L814.54 502.109C843.904 531.565 843.904 579.323 814.54 608.779L277.225 1147.91C263.124 1162.05 243.999 1170 224.058 1170H75.1898C33.6637 1170 0 1136.23 0 1094.57L5.57519e-06 945.234C1.82512e-05 925.23 7.92173 906.045 22.0226 891.899L559.338 352.77ZM591.238 491.442C602.983 479.659 622.026 479.659 633.772 491.442L676.305 534.11C688.051 545.892 688.051 564.996 676.305 576.778L221.478 1033.16C215.837 1038.82 208.188 1042 200.211 1042L157.677 1042C141.067 1042 127.601 1028.49 127.601 1011.82V969.157C127.601 961.155 130.77 953.481 136.41 947.823L591.238 491.442Z" fill="#F9F9FC"/>
</svg>
