<svg width="44" height="22" viewBox="0 0 44 22" fill="none" xmlns="http://www.w3.org/2000/svg">
<path d="M22.0099 22H10.9674C10.2361 21.9975 9.50684 21.9228 8.79027 21.7768C7.38226 21.4877 6.04504 20.9241 4.855 20.1183C3.08618 18.9249 1.70129 17.2447 0.867881 15.2811C0.0151582 13.2647 -0.215869 11.0397 0.204396 8.89128C0.624661 6.74283 1.67708 4.76871 3.22683 3.22182C4.22987 2.2182 5.41752 1.41781 6.72446 0.8647C7.39021 0.583344 8.08219 0.368537 8.79027 0.22342C10.2539 -0.0744734 11.7625 -0.0744734 13.2261 0.22342C14.6338 0.51146 15.9711 1.07384 17.1614 1.87845C18.9306 3.07137 20.3156 4.75169 21.1485 6.71569C21.4301 7.38108 21.645 8.07273 21.7901 8.7805C21.9361 9.49671 22.011 10.2256 22.0134 10.9566V17.9554H28.0974C28.741 17.9546 29.358 17.6988 29.813 17.2439C30.2681 16.7891 30.5241 16.1724 30.5248 15.5291C30.5248 15.5153 30.5248 15.5022 30.5248 15.4884C30.5248 15.4746 30.5248 15.4614 30.5248 15.4483C30.5241 14.805 30.2681 14.1883 29.813 13.7335C29.358 13.2787 28.741 13.0228 28.0974 13.0221H26.0745V10.9593C26.0744 10.2998 26.0314 9.64105 25.9459 8.98712V8.97814H28.0974C28.741 8.9774 29.358 8.72155 29.813 8.2667C30.2681 7.81186 30.5241 7.19516 30.5248 6.55191C30.5248 6.53809 30.5248 6.52496 30.5248 6.51183C30.5248 6.4987 30.5248 6.48488 30.5248 6.47106C30.5241 5.82781 30.2681 5.21112 29.813 4.75627C29.358 4.30143 28.741 4.04557 28.0974 4.04484H26.1554V4.06004H24.3979C23.6114 2.54176 22.5714 1.16878 21.3227 0.000216041H28.0981C29.3881 -0.00173544 30.6489 0.383441 31.7174 1.10587C32.7584 1.80818 33.5732 2.79714 34.0632 3.95293C34.4002 4.74964 34.5731 5.60608 34.5714 6.47106V6.55191C34.5732 7.84125 34.1879 9.10146 33.4652 10.1695C33.2657 10.4635 33.0425 10.7408 32.798 10.9987C33.0425 11.2566 33.2657 11.5339 33.4652 11.828C34.1884 12.8967 34.5738 14.158 34.5714 15.4483V15.5291C34.5732 16.8185 34.1879 18.0787 33.4652 19.1467C32.7625 20.1871 31.7731 21.0015 30.6168 21.4914C29.8198 21.8287 28.9629 22.0017 28.0974 22H22.0134H22.0099ZM4.14566 10.9593C4.15179 12.7735 4.87001 14.5128 6.14586 15.8031C7.4217 17.0935 9.15324 17.8318 10.9681 17.8593H17.9509V10.9593C17.9509 9.12925 17.2235 7.37413 15.9289 6.08007C14.6342 4.786 12.8782 4.05901 11.0472 4.05901C9.21628 4.05901 7.4603 4.786 6.16562 6.08007C4.87093 7.37413 4.14358 9.12925 4.14358 10.9593H4.14566ZM10.9674 13.8817C10.4051 13.8817 9.85547 13.7151 9.38795 13.4028C8.92044 13.0906 8.55606 12.6468 8.34088 12.1276C8.12571 11.6084 8.06941 11.037 8.17911 10.4858C8.2888 9.93462 8.55956 9.42831 8.95715 9.03091C9.35474 8.63352 9.86129 8.36289 10.4128 8.25325C10.9642 8.14361 11.5358 8.19988 12.0553 8.41495C12.5748 8.63002 13.0188 8.99422 13.3312 9.46151C13.6436 9.9288 13.8103 10.4782 13.8103 11.0402V13.8817H10.9674Z" fill="#05050A"/>
<rect x="39" y="17.5" width="4.5" height="4.5" rx="2.25" fill="#0075FF"/>
</svg>
