<svg width="227" height="81" viewBox="0 0 227 81" fill="none" xmlns="http://www.w3.org/2000/svg">
    <path d="M8.99148 30H14.1903L20.0284 9.58807H20.2557L26.0795 30H31.2784L39.4886 0.90909H33.821L28.5795 22.3011H28.3239L22.7131 0.90909H17.5568L11.9602 22.2869H11.6903L6.44886 0.90909H0.78125L8.99148 30ZM50.348 30.4261C55.4332 30.4261 58.9276 27.9403 59.8366 24.1477L55.0355 23.608C54.3395 25.4545 52.6349 26.4205 50.419 26.4205C47.0952 26.4205 44.8935 24.233 44.8509 20.4972H60.0497V18.9205C60.0497 11.2642 55.4474 7.89773 50.0781 7.89773C43.8281 7.89773 39.7514 12.4858 39.7514 19.2188C39.7514 26.0653 43.7713 30.4261 50.348 30.4261ZM44.8651 17.0312C45.0213 14.2472 47.081 11.9034 50.1491 11.9034C53.1037 11.9034 55.0923 14.0625 55.1207 17.0312H44.8651ZM69.5419 0.90909H64.3999V30H69.5419V0.90909ZM84.3466 30.4261C89.8295 30.4261 93.3239 27.1733 93.6932 22.5426H88.7784C88.3381 24.8864 86.6477 26.2358 84.3892 26.2358C81.179 26.2358 79.1051 23.5511 79.1051 19.0909C79.1051 14.6875 81.2216 12.0455 84.3892 12.0455C86.8608 12.0455 88.3807 13.6364 88.7784 15.7386H93.6932C93.3381 11.0085 89.6449 7.89773 84.3182 7.89773C77.9261 7.89773 73.892 12.5142 73.892 19.1761C73.892 25.7812 77.8267 30.4261 84.3466 30.4261ZM107.433 30.4261C113.825 30.4261 117.887 25.9233 117.887 19.1761C117.887 12.4148 113.825 7.89773 107.433 7.89773C101.04 7.89773 96.978 12.4148 96.978 19.1761C96.978 25.9233 101.04 30.4261 107.433 30.4261ZM107.461 26.3068C103.924 26.3068 102.191 23.1534 102.191 19.1619C102.191 15.1705 103.924 11.9744 107.461 11.9744C110.941 11.9744 112.674 15.1705 112.674 19.1619C112.674 23.1534 110.941 26.3068 107.461 26.3068ZM122.251 30H127.393V16.733C127.393 14.0483 129.183 12.2301 131.399 12.2301C133.572 12.2301 135.064 13.6932 135.064 15.9375V30H140.107V16.392C140.107 13.9347 141.57 12.2301 144.055 12.2301C146.129 12.2301 147.777 13.4517 147.777 16.1506V30H152.933V15.3551C152.933 10.483 150.121 7.89773 146.115 7.89773C142.947 7.89773 140.533 9.46023 139.567 11.8892H139.339C138.501 9.41761 136.385 7.89773 133.445 7.89773C130.518 7.89773 128.331 9.40341 127.422 11.8892H127.166V8.18182H122.251V30ZM167.809 30.4261C172.894 30.4261 176.388 27.9403 177.298 24.1477L172.496 23.608C171.8 25.4545 170.096 26.4205 167.88 26.4205C164.556 26.4205 162.354 24.233 162.312 20.4972H177.511V18.9205C177.511 11.2642 172.908 7.89773 167.539 7.89773C161.289 7.89773 157.212 12.4858 157.212 19.2188C157.212 26.0653 161.232 30.4261 167.809 30.4261ZM162.326 17.0312C162.482 14.2472 164.542 11.9034 167.61 11.9034C170.565 11.9034 172.553 14.0625 172.582 17.0312H162.326ZM202.678 8.18182H198.374V2.95455H193.232V8.18182H190.135V12.1591H193.232V24.2898C193.203 28.3949 196.186 30.4119 200.05 30.2983C201.513 30.2557 202.521 29.9716 203.075 29.7869L202.209 25.767C201.925 25.8381 201.342 25.9659 200.703 25.9659C199.411 25.9659 198.374 25.5114 198.374 23.4375V12.1591H202.678V8.18182ZM216.261 30.4261C222.653 30.4261 226.715 25.9233 226.715 19.1761C226.715 12.4148 222.653 7.89773 216.261 7.89773C209.869 7.89773 205.806 12.4148 205.806 19.1761C205.806 25.9233 209.869 30.4261 216.261 30.4261ZM216.289 26.3068C212.752 26.3068 211.019 23.1534 211.019 19.1619C211.019 15.1705 212.752 11.9744 216.289 11.9744C219.769 11.9744 221.502 15.1705 221.502 19.1619C221.502 23.1534 219.769 26.3068 216.289 26.3068Z" fill="black"/>
    <path d="M26.7756 50.9091H21.5341V70.7386H21.2784L7.58523 50.9091H2.86932V80H8.1392V60.1847H8.38068L22.0881 80H26.7756V50.9091ZM41.8075 80.4261C48.1996 80.4261 52.2621 75.9233 52.2621 69.1761C52.2621 62.4148 48.1996 57.8977 41.8075 57.8977C35.4155 57.8977 31.353 62.4148 31.353 69.1761C31.353 75.9233 35.4155 80.4261 41.8075 80.4261ZM41.8359 76.3068C38.299 76.3068 36.5661 73.1534 36.5661 69.1619C36.5661 65.1705 38.299 61.9744 41.8359 61.9744C45.3161 61.9744 47.049 65.1705 47.049 69.1619C47.049 73.1534 45.3161 76.3068 41.8359 76.3068ZM67.5213 58.1818H63.2173V52.9545H58.0753V58.1818H54.9787V62.1591H58.0753V74.2898C58.0469 78.3949 61.0298 80.4119 64.8935 80.2983C66.3565 80.2557 67.3651 79.9716 67.919 79.7869L67.0526 75.767C66.7685 75.8381 66.1861 75.9659 65.5469 75.9659C64.2543 75.9659 63.2173 75.5114 63.2173 73.4375V62.1591H67.5213V58.1818ZM81.2464 80.4261C86.3317 80.4261 89.826 77.9403 90.7351 74.1477L85.9339 73.608C85.2379 75.4545 83.5334 76.4205 81.3175 76.4205C77.9936 76.4205 75.7919 74.233 75.7493 70.4972H90.9482V68.9205C90.9482 61.2642 86.3459 57.8977 80.9766 57.8977C74.7266 57.8977 70.6499 62.4858 70.6499 69.2188C70.6499 76.0653 74.6697 80.4261 81.2464 80.4261ZM75.7635 67.0312C75.9197 64.2472 77.9794 61.9034 81.0476 61.9034C84.0021 61.9034 85.9908 64.0625 86.0192 67.0312H75.7635ZM112.543 63.9489C111.832 60.2557 108.878 57.8977 103.764 57.8977C98.5085 57.8977 94.929 60.483 94.9432 64.517C94.929 67.6989 96.8892 69.8011 101.08 70.6676L104.801 71.4489C106.804 71.8892 107.741 72.6989 107.741 73.9347C107.741 75.4261 106.122 76.5483 103.679 76.5483C101.321 76.5483 99.7869 75.5256 99.3466 73.5653L94.3324 74.0483C94.9716 78.054 98.3381 80.4261 103.693 80.4261C109.148 80.4261 112.997 77.5994 113.011 73.4659C112.997 70.3551 110.994 68.4517 106.875 67.5568L103.153 66.7614C100.938 66.2642 100.057 65.4972 100.071 64.233C100.057 62.7557 101.69 61.733 103.835 61.733C106.207 61.733 107.457 63.0256 107.855 64.4602L112.543 63.9489ZM123.544 50.9091H118.047L118.501 71.4489H123.075L123.544 50.9091ZM120.788 80.3125C122.464 80.3125 123.899 78.9205 123.913 77.1875C123.899 75.483 122.464 74.0909 120.788 74.0909C119.055 74.0909 117.649 75.483 117.663 77.1875C117.649 78.9205 119.055 80.3125 120.788 80.3125Z" fill="#0075FF"/>
</svg>
