<svg width="21" height="21" viewBox="0 0 21 21" fill="none" xmlns="http://www.w3.org/2000/svg" id="SvgAddIcon">
    <path d="M21 10.5C21 11.3284 20.3284 12 19.5 12H13C12.4477 12 12 12.4477 12 13V19.5C12 20.3284 11.3284 21 10.5 21V21C9.67157 21 9 20.3284 9 19.5V13C9 12.4477 8.55228 12 8 12H1.5C0.671573 12 0 11.3284 0 10.5V10.5C0 9.67157 0.671573 9 1.5 9H8C8.55228 9 9 8.55228 9 8V1.5C9 0.671573 9.67157 0 10.5 0V0C11.3284 0 12 0.671573 12 1.5V8C12 8.55228 12.4477 9 13 9H19.5C20.3284 9 21 9.67157 21 10.5V10.5Z"/>
</svg>
